<?xml version="1.0" encoding="UTF-8" standalone="no"?>
<!-- Created with Inkscape (http://www.inkscape.org/) -->

<svg
   width="210mm"
   height="297mm"
   viewBox="0 0 210 297"
   version="1.1"
   id="svg1"
   inkscape:version="1.4.3 (0d15f75042, 2025-12-25)"
   sodipodi:docname="favicon.svg"
   xmlns:inkscape="http://www.inkscape.org/namespaces/inkscape"
   xmlns:sodipodi="http://sodipodi.sourceforge.net/DTD/sodipodi-0.dtd"
   xmlns:xlink="http://www.w3.org/1999/xlink"
   xmlns="http://www.w3.org/2000/svg"
   xmlns:svg="http://www.w3.org/2000/svg">
  <sodipodi:namedview
     id="namedview1"
     pagecolor="#ffffff"
     bordercolor="#000000"
     borderopacity="0.25"
     inkscape:showpageshadow="2"
     inkscape:pageopacity="0.0"
     inkscape:pagecheckerboard="0"
     inkscape:deskcolor="#d1d1d1"
     inkscape:document-units="mm"
     inkscape:zoom="4.2784722"
     inkscape:cx="196.09804"
     inkscape:cy="68.131797"
     inkscape:window-width="1918"
     inkscape:window-height="1058"
     inkscape:window-x="0"
     inkscape:window-y="20"
     inkscape:window-maximized="1"
     inkscape:current-layer="layer1" />
  <defs
     id="defs1">
    <clipPath
       clipPathUnits="userSpaceOnUse"
       id="clipPath3">
      <use
         x="0"
         y="0"
         xlink:href="#g2"
         id="use3" />
    </clipPath>
  </defs>
  <g
     inkscape:label="Layer 1"
     inkscape:groupmode="layer"
     id="layer1">
    <rect
       style="fill:#24221c;stroke:#24221c;stroke-width:0.264583"
       id="rect2"
       width="30.549261"
       height="20.28372"
       x="34.754425"
       y="5.07093" />
    <path
       style="fill:#008000;stroke:#008000;stroke-width:0.264583"
       d="m 39.701672,7.7919168 c 1.627933,-0.1144011 3.221685,0.1017368 4.823568,0.2473624 0.249744,0.022704 0.494724,0.082454 0.742087,0.1236813 0.371044,0.041227 0.741094,0.092678 1.113131,0.1236813 1.296718,0.1080598 2.655856,0 3.957799,0 0.247363,0 0.494725,0 0.742087,0 0.123681,0 0.247363,0 0.371044,0 0.04123,0 0.123681,0.041227 0.123681,0 0,-0.1145918 -0.364697,0.2389 -0.371044,0.2473624 -0.274513,0.3660177 -0.621119,0.694785 -0.989449,0.9894496 -0.444833,0.3558664 -0.905679,0.6483392 -1.360494,0.9894492 -0.538522,0.403892 -0.240501,0.364183 -0.742087,0.865769 -0.29986,0.29986 -0.99104,0.866829 -1.360494,1.113131 -0.437222,0.291482 -0.706001,0.564278 -0.989449,0.98945 -0.09744,0.14616 -0.296802,0.17312 -0.371044,0.247362 -0.07312,0.07312 -0.213991,0.551664 -0.247362,0.618406 -0.09471,0.189428 -0.220402,0.09672 -0.371044,0.247363 -0.02915,0.02915 0.02915,0.09453 0,0.123681 -0.202041,0.202041 -0.622522,0.496783 -0.865768,0.618406 -0.21813,0.109065 -0.444462,0.444462 -0.618407,0.618406 -0.105108,0.105109 -0.265934,0.142254 -0.371043,0.247363 -0.06184,0.06184 -0.06184,0.185521 -0.123681,0.247362 -0.02915,0.02915 -0.09453,-0.02915 -0.123682,0 -0.311127,0.311128 -0.554641,0.802003 -0.865768,1.113131 -0.06184,0.06184 -0.185522,0.06184 -0.247363,0.123681 -0.06988,0.06988 -0.155229,0.402592 -0.247362,0.494725 -0.02915,0.02915 -0.09453,-0.02915 -0.123681,0 -0.0067,0.0067 -0.240661,0.364342 -0.247363,0.371044 -0.150427,0.150427 -0.247362,-0.05934 -0.247362,0.123681 0,0.01945 2.404583,0.247362 2.597305,0.247362 2.556079,0 5.112158,0 7.668236,0 0.139216,0 0.881682,-0.107768 0.98945,0 0.212229,0.21223 -0.164908,0.577179 -0.247363,0.865769 -0.05533,0.193641 -0.03193,0.434911 -0.123681,0.618406 -0.02607,0.05215 -0.105244,0.06837 -0.123681,0.123681 -0.03911,0.117335 0.08746,0.283588 0,0.371044 -0.02915,0.02915 -0.09453,-0.02915 -0.123681,0 -0.08245,0.08245 0.08245,0.412271 0,0.494725 -0.02915,0.02915 -0.09453,-0.02915 -0.123682,0 -0.02915,0.02915 0.03687,0.105244 0,0.123681 -0.151158,0.07558 -0.71583,0 -0.865768,0 -0.817518,0 -0.845871,-0.02051 -1.855218,0.123681 -1.223849,0.174836 -2.464906,0.123681 -3.710437,0.123681 -1.69031,0 -3.38062,0 -5.07093,0 -1.001199,0 -1.895029,-0.01 -2.844668,-0.247362 -0.06974,-0.01743 -0.865769,0.01311 -0.865769,0 0,-0.141565 1.656469,-1.51402 1.731538,-1.607856 0.150172,-0.187715 0.20106,-0.448422 0.371043,-0.618406 0.105109,-0.105109 0.265935,-0.142254 0.371044,-0.247362 0.210218,-0.210218 0.304403,-0.513701 0.494725,-0.742088 0.381164,-0.457397 0.932761,-0.986227 1.360493,-1.360493 0.06938,-0.0607 0.182177,-0.0585 0.247363,-0.123681 0.632058,-0.632058 -0.518593,0.172502 0.371043,-0.494725 0.07375,-0.05531 0.164908,-0.08245 0.247363,-0.123681 0.164908,-0.123681 0.336367,-0.23908 0.494724,-0.371044 0.268742,-0.223951 0.476482,-0.514425 0.742088,-0.742087 0.112861,-0.09674 0.265935,-0.142254 0.371044,-0.247363 0.229825,-0.229826 0.38858,-0.635943 0.618406,-0.865768 0.105108,-0.105109 0.265935,-0.142254 0.371043,-0.247363 0.199505,-0.199504 0.418902,-0.542583 0.618406,-0.742087 0.449424,-0.449423 0.766753,-0.840926 1.113132,-1.360494 0.07496,-0.112442 0.412696,-0.45371 0.494724,-0.494724 0.07375,-0.03688 0.173614,0.03687 0.247363,0 0.03687,-0.01844 -0.02915,-0.09453 0,-0.123682 0.02915,-0.02915 0.09453,0.02915 0.123681,0 0.02915,-0.02915 -0.02915,-0.09453 0,-0.123681 0.123681,-0.123681 0.527489,-0.292821 0.371043,-0.371044 -0.07375,-0.03687 -0.165736,0.01166 -0.247362,0 -1.176672,-0.168095 -2.286446,-0.130736 -3.463074,0 -0.955406,0.106157 -2.008043,0 -2.968349,0 -0.98945,0 -1.9789,0 -2.96835,0 -0.206135,0 -0.41227,0 -0.618406,0 -0.04123,0 -0.123681,-0.04123 -0.123681,0 0,0.04123 0.08245,0 0.123681,0 0.378163,0 0.554569,-0.287258 0.865769,-0.494724 0.445553,-0.2970357 2.093882,-0.963356 2.226262,-1.3604937 0.09219,-0.2765595 0.08245,-0.577179 0.123681,-0.8657685 z"
       id="path1" />
    <g
       id="g3"
       clip-path="url(#clipPath3)"
       transform="translate(31.167668,1.6078559)">
      <g
         inkscape:label="Clip"
         id="g2">
        <path
           style="fill:#00ffff;stroke:#00ffff;stroke-width:0.264583"
           d="m 21.891576,12.615484 c 0.206136,0.08246 0.414343,0.159907 0.618406,0.247363 0.188529,0.0808 1.233075,0.251099 1.236812,0.247362 0.02915,-0.02915 -0.02915,-0.09453 0,-0.123681 0.122057,-0.122056 1.158801,0 1.360494,0 0.05093,0 0.338303,-0.03274 0.371043,0 0.06435,0.06435 0,0.390149 0,0.494725 0,0.585013 0.122311,1.363233 -0.12368,1.855218 -0.148418,0.296835 0.148416,0.816296 0,1.113131 -0.392259,0.784516 -2.537252,0.310989 -2.720988,0.494725 -0.02815,0.02815 -0.123681,1.465529 -0.123681,1.607856 0,0.206343 -0.124848,0.988282 0,1.113131 0.219145,0.219144 0.929752,0.123681 1.360494,0.123681 0.507316,0 1.109072,0.09976 1.607855,0 0.377489,-0.0755 0.725408,-0.191973 1.113131,-0.247362 0.267978,-0.03828 0.601625,0.06604 0.86577,0 0.488037,-0.122009 1.002596,-0.210518 1.484175,-0.371044 0.33071,-0.110237 1.962864,0.139716 2.10258,0 0.08245,-0.08245 -0.16491,-0.164908 -0.247362,-0.247362 -0.347541,-0.34754 -0.47552,-0.684465 -0.618408,-1.113131 -0.05653,-0.1696 -0.01656,-0.263917 -0.123679,-0.371044 -0.09778,-0.09778 -1.174512,-0.08648 -1.360496,-0.123681 -0.328916,-0.06578 -0.66276,-0.165691 -0.989449,-0.247363 -0.129071,-0.03227 -0.644348,0.09774 -0.742087,0 -0.194551,-0.194552 -0.0721,-0.855211 -0.123682,-1.113131 -0.08056,-0.402788 -0.230622,-0.93273 -0.12368,-1.360493 0.02236,-0.08943 0.108524,-0.15643 0.12368,-0.247363 0.111323,-0.66793 -0.07389,-0.34694 0.123682,-0.742087 0.03687,-0.07375 -0.0583,-0.189058 0,-0.247362 0.02915,-0.02915 0.105243,0.03687 0.123682,0 0.03687,-0.07375 -0.0583,-0.189059 0,-0.247363 0.174588,-0.174587 2.885993,0.247363 3.339393,0.247363 0.07921,0 0.717947,0.04828 0.742088,0 0.124359,-0.248722 -0.06226,-0.557823 -0.123682,-0.742088 -0.103992,-0.311971 0.146693,-0.819746 0,-1.113131 -0.05215,-0.104297 -0.150339,-0.18268 -0.247362,-0.247362 -0.330036,-0.220024 -0.623909,-0.195142 -0.989452,-0.247363 -0.168275,-0.02404 -0.326054,-0.102597 -0.494723,-0.123681 -0.971521,-0.12144 -1.999022,0.138476 -2.96835,0 -0.129061,-0.01844 -0.242445,-0.102248 -0.371043,-0.123681 -0.449519,-0.07492 -3.027199,-0.104065 -3.339394,0 -0.426355,0.142119 -0.09162,0.123681 -0.371043,0.123681 -0.08245,0 -0.210488,-0.07375 -0.247363,0 -0.483154,0.966309 0.613933,-0.490251 -0.247362,0.371044 -0.02915,0.02915 0.02915,0.09453 0,0.123681 -0.05483,0.05483 -0.299298,0.137333 -0.247362,0.371044 0.06811,0.306499 0.247362,0.577179 0.371043,0.865768 z"
           id="path2" />
      </g>
    </g>
    <path
       style="fill:#008000;stroke:#008000;stroke-width:0.264583"
       id="path3"
       d="m 55.637043,10.458769 c 0.458044,-0.149635 0.926026,-0.289025 1.406544,-0.34339 0.120647,-0.01365 0.242154,-0.0182 0.36323,-0.0273 0.377791,-0.02764 0.756364,-0.0072 1.134404,-0.0092 0.195469,-0.001 0.343895,0.0021 0.529995,-0.05671 0.06481,-0.02047 0.123309,-0.057192 0.184964,-0.085788 0.04587,-0.048574 0.100992,-0.089836 0.137597,-0.1457214 0.144034,-0.2198994 0.114784,-0.5207843 -0.0222,-0.7349968 -0.03838,-0.06001 -0.09098,-0.1096254 -0.136475,-0.1644383 C 58.75456,8.5480884 58.796898,8.5657787 57.953258,8.1491192 57.857746,8.1019477 57.519892,8.0396545 57.411553,8.0483209 57.158281,8.06858 57.080276,8.1535663 56.87107,8.2841985 c -0.07848,0.077476 -0.166134,0.1466496 -0.235445,0.2324285 -0.273603,0.3386125 -0.460094,0.8287584 -0.377494,1.2683183 0.01744,0.092776 0.06285,0.1780299 0.09428,0.2670447 0.06135,0.07532 0.112546,0.160199 0.184036,0.225972 0.07539,0.06936 0.163272,0.124799 0.252304,0.175469 0.357188,0.203285 0.723329,0.390417 1.084993,0.585625 0,0 -0.742892,-0.588291 -0.742892,-0.588291 v 0 c 0.180054,0.115281 0.364477,0.224011 0.540165,0.345842 0.08198,0.05685 -0.179189,-0.09028 -0.25864,-0.150618 -0.07336,-0.05571 -0.130726,-0.12981 -0.196088,-0.194714 -0.03693,-0.08073 -0.08813,-0.15636 -0.110797,-0.242196 -0.108543,-0.4110371 0.06856,-0.8845753 0.333615,-1.1977616 0.06688,-0.079022 0.151625,-0.1409903 0.227439,-0.2114854 0.08257,-0.045492 0.158935,-0.1047774 0.247724,-0.1364755 0.189529,-0.067663 0.330457,-0.050864 0.521044,-0.00574 0.08929,0.021143 0.331084,0.1446913 0.262078,0.084209 -0.167198,-0.1465479 -0.379283,-0.2321372 -0.56692,-0.3514013 -0.07067,-0.044921 0.143981,0.085555 0.215971,0.128333 0.0479,0.046792 0.101902,0.088062 0.143701,0.1403755 0.133122,0.1666081 0.20326,0.434499 0.07761,0.627013 -0.02992,0.045839 -0.07761,0.077207 -0.116419,0.1158102 -0.05542,0.023887 -0.108302,0.054862 -0.16627,0.071662 -0.169968,0.04926 -0.32722,0.049049 -0.503671,0.05243 -0.378561,0.00725 -0.757669,-0.00512 -1.135946,0.018404 -0.122299,0.011025 -0.245068,0.017703 -0.366895,0.033079 -0.495065,0.062479 -0.975511,0.2082215 -1.458799,0.3267138 z" />
  </g>
</svg>
